<?xml version="1.0" encoding="UTF-8" standalone="no"?>
<!-- Created with Inkscape (http://www.inkscape.org/) -->

<svg
   xmlns:dc="http://purl.org/dc/elements/1.1/"
   xmlns:cc="http://creativecommons.org/ns#"
   xmlns:rdf="http://www.w3.org/1999/02/22-rdf-syntax-ns#"
   xmlns:svg="http://www.w3.org/2000/svg"
   xmlns="http://www.w3.org/2000/svg"
   xmlns:sodipodi="http://sodipodi.sourceforge.net/DTD/sodipodi-0.dtd"
   xmlns:inkscape="http://www.inkscape.org/namespaces/inkscape"
   version="1.1"
   width="300"
   height="100"
   id="svg2"
   inkscape:version="0.48.4 r9939"
   sodipodi:docname="agromatic-logo-fondo-blanco.svg"
   inkscape:export-filename="/home/elshaka/Proyectos/agromatic-web/wp-content/themes/agromatic/core/images/default-logo.png"
   inkscape:export-xdpi="90"
   inkscape:export-ydpi="90">
  <sodipodi:namedview
     pagecolor="#ffffff"
     bordercolor="#666666"
     borderopacity="1"
     objecttolerance="10"
     gridtolerance="10"
     guidetolerance="10"
     inkscape:pageopacity="0"
     inkscape:pageshadow="2"
     inkscape:window-width="1366"
     inkscape:window-height="709"
     id="namedview3022"
     showgrid="false"
     fit-margin-top="0"
     fit-margin-left="0"
     fit-margin-right="0"
     fit-margin-bottom="0"
     inkscape:zoom="0.92585864"
     inkscape:cx="300.50211"
     inkscape:cy="-7.2220747"
     inkscape:window-x="0"
     inkscape:window-y="27"
     inkscape:window-maximized="1"
     inkscape:current-layer="svg2" />
  <defs
     id="defs4">
    <linearGradient
       id="linearGradient3966">
      <stop
         id="stop3976"
         style="stop-color:#000000;stop-opacity:1"
         offset="0" />
      <stop
         id="stop3970"
         style="stop-color:#518f51;stop-opacity:1"
         offset="1" />
    </linearGradient>
    <clipPath
       id="clipPath3270">
      <path
         d="M 0,792 612,792 612,0 0,0 0,792 z"
         id="path3272"
         inkscape:connector-curvature="0" />
    </clipPath>
    <clipPath
       id="clipPath3260">
      <path
         d="M 0,792 612,792 612,0 0,0 0,792 z"
         id="path3262"
         inkscape:connector-curvature="0" />
    </clipPath>
    <clipPath
       id="clipPath3092">
      <path
         d="M 0,792 612,792 612,0 0,0 0,792 z"
         id="path3094-4"
         inkscape:connector-curvature="0" />
    </clipPath>
  </defs>
  <metadata
     id="metadata7">
    <rdf:RDF>
      <cc:Work
         rdf:about="">
        <dc:format>image/svg+xml</dc:format>
        <dc:type
           rdf:resource="http://purl.org/dc/dcmitype/StillImage" />
        <dc:title></dc:title>
      </cc:Work>
    </rdf:RDF>
  </metadata>
  <g
     style="font-size:40px;font-style:normal;font-variant:normal;font-weight:normal;font-stretch:normal;text-align:start;line-height:125%;letter-spacing:0px;word-spacing:0px;writing-mode:lr-tb;text-anchor:start;fill:#008000;fill-opacity:1;stroke:#008000;stroke-opacity:1;font-family:Acens;-inkscape-font-specification:Acens"
     id="g3428"
     transform="matrix(0.60525028,0,0,0.60525028,152.09794,8.28768)" />
  <g
     style="font-size:29.7686615px;font-style:oblique;font-variant:normal;font-weight:bold;font-stretch:normal;text-align:start;line-height:125%;letter-spacing:0px;word-spacing:0px;writing-mode:lr-tb;text-anchor:start;fill:#008000;fill-opacity:1;stroke:none;font-family:Aller;-inkscape-font-specification:Aller Bold Oblique"
     id="text4378"
     transform="matrix(1.6111515,0,0,1.6111515,-505.43187,-329.24083)">
    <path
       inkscape:connector-curvature="0"
       style="fill:#008000;fill-opacity:1"
       id="path3104"
       d="m 362.49486,221.42362 c 0.39729,-0.0593 0.81912,-0.10399 1.26549,-0.13399 0.44635,-0.03 0.86818,-0.045 1.2655,-0.045 0.81337,2e-5 1.62705,0.0597 2.44105,0.17896 l 2.61911,21.4035 c -0.75404,0.11931 -1.47839,0.17897 -2.17305,0.17897 -0.69469,0 -1.43903,-0.0597 -2.23302,-0.17897 l -0.387,-4.31613 -6.51916,0 -1.90506,4.31613 c -0.71467,0.11931 -1.459,0.17897 -2.23301,0.17897 -0.75403,0 -1.46839,-0.0597 -2.14308,-0.17897 z m 2.47103,13.51437 -0.77402,-8.57321 -3.81011,8.57321 z" />
    <path
       inkscape:connector-curvature="0"
       style="fill:#008000;fill-opacity:1"
       id="path3106"
       d="m 383.44684,230.62186 c -0.17868,-0.0394 -0.35234,-0.064 -0.521,-0.074 -0.16869,-0.01 -0.33236,-0.015 -0.49103,-0.015 -0.95269,1e-5 -1.76637,0.23818 -2.44105,0.71451 -0.6747,0.47635 -1.22538,1.0667 -1.65205,1.77105 -0.42669,0.70438 -0.74435,1.4684 -0.95298,2.29207 -0.20865,0.82368 -0.31298,1.57286 -0.31297,2.24755 -10e-6,0.71466 0.12415,1.2655 0.37247,1.6525 0.24831,0.38701 0.62048,0.58051 1.11651,0.58051 0.95267,0 1.83585,-0.58051 2.64954,-1.74153 0.81368,-1.16102 1.40887,-2.79353 1.7856,-4.89755 z m -1.36997,9.31815 c -0.57537,0.91271 -1.3194,1.68157 -2.2321,2.3066 -0.91272,0.62502 -1.96472,0.93754 -3.15602,0.93754 -1.30941,0 -2.29661,-0.42168 -2.9616,-1.26505 -0.665,-0.84335 -0.9975,-1.94972 -0.9975,-3.31908 0,-1.48867 0.22333,-2.92253 0.67,-4.30159 0.44666,-1.37905 1.1115,-2.60442 1.99454,-3.67612 0.88302,-1.07167 1.98439,-1.93002 3.30409,-2.57505 1.31969,-0.645 2.85288,-0.9675 4.59957,-0.96752 1.72668,2e-5 3.33406,0.22804 4.82215,0.68408 l -2.61911,14.73625 c -0.27801,1.58739 -0.76934,2.87227 -1.47399,3.85463 -0.70468,0.98235 -1.52336,1.75137 -2.45604,2.30705 -0.93271,0.55567 -1.91991,0.93269 -2.96161,1.13104 -1.04171,0.19834 -2.0489,0.29752 -3.02156,0.29753 -0.97267,-1e-5 -1.79635,-0.0595 -2.47103,-0.17852 -0.67469,-0.11901 -1.1907,-0.23787 -1.54803,-0.35657 0.02,-0.33735 0.0448,-0.64502 0.0745,-0.92301 0.0297,-0.27799 0.0743,-0.54599 0.134,-0.80399 0.0597,-0.25801 0.13915,-0.51601 0.23848,-0.77401 0.0993,-0.25801 0.23832,-0.54569 0.41698,-0.86305 0.31736,0.0993 0.74888,0.19365 1.29457,0.28299 0.54568,0.0893 1.13618,0.134 1.77151,0.134 0.55537,0 1.13573,-0.0447 1.74108,-0.134 0.60533,-0.0893 1.19084,-0.29283 1.75652,-0.61049 0.56566,-0.31766 1.08167,-0.794 1.54803,-1.42902 0.46633,-0.63502 0.82851,-1.50821 1.08653,-2.61956 z" />
    <path
       inkscape:connector-curvature="0"
       style="fill:#008000;fill-opacity:1"
       id="path3108"
       d="m 391.34506,234.04496 c 0.21803,-1.25004 0.38155,-2.35625 0.49057,-3.31863 0.10901,-0.96236 0.16352,-1.71154 0.16353,-2.24755 -1e-5,-0.21862 -1e-5,-0.40228 0,-0.55098 -1e-5,-0.14867 -0.01,-0.31235 -0.0291,-0.49103 0.65469,-0.1193 1.30939,-0.17895 1.9641,-0.17897 0.29797,2e-5 0.5958,0.015 0.89348,0.045 0.29767,0.03 0.61518,0.0747 0.95253,0.134 0.04,0.1587 0.0798,0.3472 0.11946,0.56552 0.0397,0.21835 0.0595,0.54585 0.0595,0.98251 -1e-5,0.17868 -0.005,0.35734 -0.015,0.536 -0.01,0.17867 -0.035,0.39701 -0.075,0.655 0.19864,-0.35732 0.4468,-0.70965 0.74449,-1.057 0.29766,-0.34733 0.63001,-0.65999 0.99704,-0.93799 0.36701,-0.27798 0.77385,-0.50131 1.22053,-0.67 0.44665,-0.16866 0.93798,-0.25299 1.47398,-0.25301 0.41667,2e-5 0.7737,0.0497 1.07109,0.14899 0.02,0.0794 0.03,0.1587 0.03,0.23802 -2e-5,0.0794 -2e-5,0.16869 0,0.268 -2e-5,0.55599 -0.0695,1.13166 -0.2085,1.72699 -0.13901,0.59537 -0.32751,1.09139 -0.56552,1.48807 -0.11872,-0.02 -0.24757,-0.0398 -0.38655,-0.0595 -0.13901,-0.0197 -0.31782,-0.0295 -0.53645,-0.0295 -0.81339,2e-5 -1.48308,0.13886 -2.00908,0.41654 -0.52601,0.2777 -0.95768,0.6697 -1.29502,1.17601 -0.33735,0.50633 -0.6052,1.11666 -0.80354,1.83101 -0.19835,0.71437 -0.37687,1.50822 -0.53554,2.38155 l -1.10197,5.98317 c -0.77402,0.11931 -1.49837,0.17897 -2.17305,0.17897 -0.69468,0 -1.37936,-0.0597 -2.05405,-0.17897 z" />
    <path
       inkscape:connector-curvature="0"
       style="fill:#008000;fill-opacity:1"
       id="path3110"
       d="m 407.58482,243.18415 c -2.04466,0 -3.54817,-0.53585 -4.51054,-1.60754 -0.96237,-1.07168 -1.44355,-2.54022 -1.44355,-4.40561 0,-1.19069 0.17866,-2.38638 0.53599,-3.58708 0.35733,-1.20068 0.89318,-2.28221 1.60754,-3.2446 0.71435,-0.96235 1.61237,-1.74621 2.69406,-2.35156 1.08167,-0.60533 2.34686,-0.908 3.79557,-0.90802 2.06342,2e-5 3.57647,0.5457 4.53916,1.63706 0.96266,1.09139 1.44399,2.56976 1.44401,4.43514 -2e-5,1.23068 -0.17368,2.44136 -0.52101,3.63205 -0.34735,1.19071 -0.8782,2.26239 -1.59254,3.21507 -0.71437,0.95268 -1.61739,1.7217 -2.70905,2.30705 -1.09168,0.58536 -2.37156,0.87804 -3.83964,0.87804 z m 0.3861,-3.21507 c 0.75463,0 1.38995,-0.23817 1.90597,-0.71451 0.516,-0.47634 0.93768,-1.06669 1.26504,-1.77106 0.32734,-0.70436 0.56051,-1.44854 0.69952,-2.23256 0.13898,-0.784 0.20848,-1.49336 0.20849,-2.12808 -10e-6,-1.82601 -0.74435,-2.73902 -2.23301,-2.73903 -0.75404,1e-5 -1.37906,0.24802 -1.87508,0.74403 -0.49603,0.49604 -0.90287,1.10138 -1.22052,1.81603 -0.31767,0.71467 -0.541,1.46885 -0.67,2.26254 -0.12901,0.7937 -0.19351,1.49822 -0.1935,2.11355 -10e-6,1.76606 0.70436,2.64909 2.11309,2.64909 z" />
    <path
       inkscape:connector-curvature="0"
       style="fill:#008000;fill-opacity:1"
       id="path3112"
       d="m 419.71831,234.04496 c 0.21803,-1.25004 0.38155,-2.35625 0.49058,-3.31863 0.10901,-0.96236 0.16351,-1.71154 0.16352,-2.24755 -10e-6,-0.21862 -10e-6,-0.40228 0,-0.55098 -10e-6,-0.14867 -0.01,-0.31235 -0.0291,-0.49103 0.6547,-0.1193 1.3094,-0.17895 1.9641,-0.17897 0.29798,2e-5 0.5958,0.015 0.89348,0.045 0.29767,0.03 0.61518,0.0747 0.95253,0.134 0.04,0.1587 0.0798,0.3472 0.11946,0.56552 0.0397,0.21835 0.0595,0.54585 0.0595,0.98251 -10e-6,0.17868 -0.005,0.35734 -0.015,0.536 -0.01,0.17867 -0.035,0.39701 -0.075,0.655 0.45665,-0.85334 1.13648,-1.57784 2.03951,-2.17351 0.90301,-0.59563 1.9002,-0.89346 2.99158,-0.89348 1.05199,2e-5 1.87067,0.23334 2.45605,0.69998 0.58533,0.46666 0.93767,1.23568 1.057,2.30705 0.47602,-0.83335 1.17054,-1.54286 2.08357,-2.12854 0.91299,-0.58564 1.90518,-0.87847 2.97659,-0.87849 1.19068,2e-5 2.09369,0.29285 2.70905,0.87849 0.61531,0.58568 0.92298,1.56319 0.923,2.93254 -2e-5,0.67469 -0.0694,1.38905 -0.20804,2.14307 l -1.72699,9.76421 c -0.75405,0.11931 -1.4784,0.17897 -2.17306,0.17897 -0.69469,0 -1.37937,-0.0597 -2.05404,-0.17897 l 1.66704,-9.43625 c 0.0793,-0.45665 0.11898,-0.88333 0.11901,-1.28003 -3e-5,-0.53599 -0.10919,-0.91315 -0.32751,-1.1315 -0.21835,-0.21832 -0.55585,-0.32749 -1.01248,-0.3275 -0.27741,1e-5 -0.57993,0.0695 -0.90756,0.20849 -0.32768,0.13901 -0.66017,0.40685 -0.9975,0.80354 -0.33736,0.39671 -0.65487,0.94239 -0.95253,1.63706 -0.29769,0.69468 -0.54555,1.5977 -0.74358,2.70905 l -1.191,6.81714 c -0.75404,0.11931 -1.47839,0.17897 -2.17305,0.17897 -0.69469,0 -1.37937,-0.0597 -2.05405,-0.17897 l 1.66704,-9.43625 c 0.0793,-0.45665 0.119,-0.88333 0.11901,-1.28003 -1e-5,-0.53599 -0.10918,-0.91315 -0.3275,-1.1315 -0.21835,-0.21832 -0.55585,-0.32749 -1.01249,-0.3275 -0.2774,1e-5 -0.58491,0.0695 -0.92255,0.20849 -0.33766,0.13901 -0.67515,0.43169 -1.01249,0.87803 -0.33735,0.44638 -0.6647,1.0764 -0.98205,1.89007 -0.31737,0.81369 -0.59505,1.88553 -0.83306,3.21552 l -1.10198,5.98317 c -0.77402,0.11931 -1.49837,0.17897 -2.17305,0.17897 -0.69468,0 -1.37936,-0.0597 -2.05404,-0.17897 z" />
    <path
       inkscape:connector-curvature="0"
       style="fill:#008000;fill-opacity:1"
       id="path3114"
       d="m 454.46629,230.62186 c -0.17868,-0.0394 -0.35235,-0.064 -0.52101,-0.074 -0.16868,-0.01 -0.33236,-0.015 -0.49103,-0.015 -0.95269,1e-5 -1.76137,0.23818 -2.42606,0.71451 -0.6647,0.47635 -1.21538,1.0717 -1.65205,1.78604 -0.43667,0.71437 -0.75433,1.48339 -0.95298,2.30706 -0.19866,0.82368 -0.29798,1.57286 -0.29798,2.24755 0,1.46869 0.48633,2.20303 1.459,2.20303 0.95267,0 1.83585,-0.58051 2.64955,-1.74153 0.81367,-1.16102 1.40887,-2.79353 1.78559,-4.89755 z m 3.06608,5.53711 c -0.21805,1.25005 -0.37673,2.35641 -0.47604,3.31908 -0.0993,0.96268 -0.14901,1.71201 -0.14899,2.24801 -2e-5,0.21803 -2e-5,0.40154 0,0.55053 -2e-5,0.14899 0.01,0.31251 0.03,0.49057 -0.65532,0.11931 -1.30033,0.17897 -1.93504,0.17897 -0.55599,0 -1.17133,-0.0597 -1.846,-0.17897 -0.0394,-0.15868 -0.0789,-0.34719 -0.11856,-0.56552 -0.0397,-0.21834 -0.0595,-0.54554 -0.0595,-0.9816 -1e-5,-0.17866 -1e-5,-0.36732 0,-0.56598 -1e-5,-0.19865 0.0197,-0.42697 0.059,-0.68498 -0.57538,0.91331 -1.30957,1.67749 -2.20258,2.29252 -0.89303,0.61503 -1.93489,0.92255 -3.12558,0.92255 -1.31002,0 -2.29252,-0.41669 -2.94753,-1.25006 -0.655,-0.83336 -0.98251,-1.93473 -0.9825,-3.30409 -10e-6,-1.48867 0.22333,-2.92753 0.66999,-4.31658 0.44666,-1.38904 1.11151,-2.61941 1.99454,-3.69111 0.88303,-1.07167 1.97955,-1.93002 3.28956,-2.57505 1.31,-0.645 2.83804,-0.9675 4.58413,-0.96752 0.87333,2e-5 1.68701,0.0595 2.44105,0.17852 0.75401,0.11902 1.49835,0.28754 2.23301,0.50556 z" />
    <path
       inkscape:connector-curvature="0"
       style="fill:#008000;fill-opacity:1"
       id="path3116"
       d="m 463.19938,230.65184 -2.29206,0 c 0,-0.53599 0.0397,-1.06199 0.11901,-1.57801 0.0793,-0.516 0.22802,-1.06168 0.44606,-1.63706 l 2.29206,0 0.17897,-0.89302 c 0.0993,-0.49601 0.15882,-0.96735 0.17851,-1.41403 0.0197,-0.44665 0.0295,-0.81866 0.0295,-1.11605 0.516,-0.33733 1.16101,-0.5755 1.93503,-0.71451 0.77401,-0.13898 1.48867,-0.20848 2.14399,-0.2085 0.0987,0.29739 0.14807,0.67441 0.14808,1.13104 -1e-5,0.31738 -0.0247,0.65972 -0.074,1.02703 -0.0494,0.36734 -0.11372,0.76933 -0.19305,1.20599 l -0.17897,0.98205 3.6911,0 c -10e-6,0.59536 -0.0497,1.14105 -0.14899,1.63706 -0.0993,0.49604 -0.23803,1.02204 -0.41607,1.57801 l -3.69202,0 -1.04201,5.86415 c -0.0394,0.278 -0.0739,0.53601 -0.10356,0.77402 -0.0297,0.23802 -0.0445,0.46635 -0.0445,0.68498 -1e-5,0.51602 0.119,0.92286 0.35703,1.22053 0.23801,0.29768 0.68437,0.44651 1.33908,0.44651 0.33733,0 0.63501,-0.0248 0.89302,-0.0745 0.258,-0.0497 0.49632,-0.10417 0.71497,-0.16353 0.25799,0.57537 0.38699,1.3294 0.387,2.26209 -1e-5,0.15868 -1e-5,0.31736 0,0.47603 -1e-5,0.15868 -0.01,0.31766 -0.03,0.47695 -0.85337,0.258 -1.87539,0.38701 -3.06608,0.38701 -1.66735,0 -2.90286,-0.30767 -3.70655,-0.92301 -0.80369,-0.61533 -1.20554,-1.64735 -1.20554,-3.09605 0,-0.29798 0.0198,-0.60564 0.0595,-0.92301 0.0397,-0.31735 0.0895,-0.66469 0.14944,-1.04201 z" />
    <path
       inkscape:connector-curvature="0"
       style="fill:#008000;fill-opacity:1"
       id="path3118"
       d="m 474.92406,230.65184 -1.87599,0 c 0,-0.0593 -0.005,-0.11885 -0.0145,-0.17852 -0.01,-0.0596 -0.0145,-0.12914 -0.0145,-0.20849 0,-0.516 0.0495,-0.99733 0.14854,-1.44401 0.099,-0.44665 0.24785,-0.908 0.44651,-1.38405 l 6.01315,0 -2.70905,15.39035 c -0.75404,0.11931 -1.4684,0.17897 -2.14308,0.17897 -0.61534,0 -1.28034,-0.0597 -1.99499,-0.17897 z m 0.86304,-5.80511 c -0.02,-0.69466 0.0247,-1.35451 0.134,-1.97955 0.10932,-0.62501 0.28298,-1.28486 0.52101,-1.97955 0.35732,-0.0793 0.73449,-0.13383 1.1315,-0.16353 0.39699,-0.0297 0.75417,-0.0445 1.07153,-0.0445 0.31735,2e-5 0.66953,0.0149 1.05655,0.0445 0.387,0.0297 0.74917,0.0842 1.08653,0.16353 -1e-5,0.69469 -0.0595,1.35954 -0.17852,1.99454 -0.11902,0.63504 -0.29753,1.28989 -0.53554,1.96456 -0.35734,0.0594 -0.72951,0.099 -1.1165,0.11901 -0.38702,0.02 -0.7392,0.03 -1.05655,0.03 -0.29799,2e-5 -0.64548,-0.01 -1.04247,-0.03 -0.39701,-0.02 -0.75418,-0.0596 -1.07154,-0.11901 z" />
    <path
       inkscape:connector-curvature="0"
       style="fill:#008000;fill-opacity:1"
       id="path3120"
       d="m 491.66894,239.16599 c 0.21802,0.35673 0.39653,0.78326 0.53554,1.27958 0.13898,0.49633 0.20848,1.15118 0.20849,1.96456 -0.63533,0.27799 -1.31017,0.47649 -2.02452,0.5955 -0.71437,0.11901 -1.49822,0.17852 -2.35157,0.17852 -2.26209,0 -3.91913,-0.55069 -4.97113,-1.65205 -1.05201,-1.10137 -1.57801,-2.61472 -1.57801,-4.54007 0,-1.1707 0.1935,-2.34641 0.58051,-3.52712 0.38701,-1.1807 0.95752,-2.24239 1.71156,-3.18509 0.75402,-0.94267 1.68187,-1.71169 2.78354,-2.30705 1.10166,-0.59534 2.37684,-0.89301 3.82556,-0.89303 0.67467,2e-5 1.32953,0.0495 1.96456,0.14854 0.635,0.099 1.24019,0.25787 1.81557,0.47649 -0.0194,0.51602 -0.10858,1.0667 -0.26754,1.65205 -0.159,0.58537 -0.40716,1.14604 -0.74449,1.68202 -0.43669,-0.17865 -0.86836,-0.31764 -1.29502,-0.41698 -0.42669,-0.0993 -0.89804,-0.14898 -1.41403,-0.14899 -0.77403,1e-5 -1.44872,0.17368 -2.02407,0.52101 -0.57537,0.34734 -1.05655,0.80385 -1.44355,1.36951 -0.38702,0.56568 -0.67485,1.21569 -0.8635,1.95003 -0.18867,0.73435 -0.283,1.49822 -0.28299,2.2916 -10e-6,1.09199 0.27783,1.89598 0.83352,2.41199 0.55567,0.51601 1.26019,0.77401 2.11355,0.77401 0.43666,0 0.86833,-0.0397 1.29502,-0.11901 0.42666,-0.0793 0.95766,-0.24801 1.593,-0.50602 z" />
  </g>
  <g
     style="font-size:7.94416809px;font-style:oblique;font-variant:normal;font-weight:bold;font-stretch:normal;text-align:start;line-height:125%;letter-spacing:0px;word-spacing:0px;writing-mode:lr-tb;text-anchor:start;fill:#008000;fill-opacity:1;stroke:none;font-family:Aller;-inkscape-font-specification:Aller Bold Oblique"
     id="text3932"
     transform="translate(-205.91903,-187.51462)">
    <path
       inkscape:connector-curvature="0"
       style="fill:#008000;fill-opacity:1"
       id="path3123"
       d="m 496.53905,220.29116 c 0.1482,-0.0263 0.29116,-0.0461 0.42887,-0.0594 0.1377,-0.0132 0.29132,-0.0199 0.46087,-0.0199 0.50313,0 0.86327,0.0887 1.08042,0.26607 0.21714,0.17739 0.32571,0.4117 0.32571,0.70295 0,0.18021 -0.0358,0.34046 -0.10728,0.48075 -0.0715,0.14029 -0.15229,0.24753 -0.24231,0.32171 l -0.11928,0.0953 0.69919,1.23934 c -0.0742,0.0107 -0.15234,0.0186 -0.23444,0.0239 -0.0821,0.005 -0.16817,0.008 -0.25819,0.008 -0.074,0 -0.14418,-0.003 -0.21044,-0.008 -0.0663,-0.005 -0.13116,-0.0132 -0.19468,-0.0239 l -0.71494,-1.39013 0.12703,-0.0795 c 0.12187,-0.0742 0.22252,-0.15496 0.30196,-0.24232 0.0794,-0.0874 0.11915,-0.19463 0.11916,-0.32183 -10e-6,-0.1217 -0.0371,-0.22094 -0.11116,-0.29772 -0.0741,-0.0768 -0.1906,-0.11515 -0.34947,-0.11515 -0.0372,0 -0.0703,0.001 -0.0994,0.004 -0.0291,0.003 -0.0702,0.009 -0.12316,0.0199 l 0,2.43092 c -0.10587,0.0212 -0.23032,0.0318 -0.37335,0.0318 -0.0635,0 -0.12971,-0.003 -0.19856,-0.008 -0.0688,-0.005 -0.13771,-0.0132 -0.20655,-0.0238 z m 1.06454,3.94833 c 0.36009,0 0.68314,-0.0609 0.96914,-0.18268 0.28599,-0.12178 0.52826,-0.28862 0.72682,-0.50051 0.19855,-0.21189 0.3508,-0.46212 0.45675,-0.7507 0.10594,-0.28858 0.15891,-0.59975 0.15892,-0.93351 -10e-6,-0.33358 -0.053,-0.64471 -0.15892,-0.93338 -0.10595,-0.28865 -0.2582,-0.53889 -0.45675,-0.7507 -0.19856,-0.21181 -0.44083,-0.37864 -0.72682,-0.50051 -0.286,-0.12186 -0.60905,-0.18279 -0.96914,-0.1828 -0.36011,10e-6 -0.68315,0.0609 -0.96915,0.1828 -0.28599,0.12187 -0.52831,0.2887 -0.72694,0.50051 -0.19864,0.21181 -0.35093,0.46205 -0.45687,0.7507 -0.10595,0.28867 -0.15892,0.5998 -0.15892,0.93338 0,0.33376 0.053,0.64493 0.15892,0.93351 0.10594,0.28858 0.25823,0.53881 0.45687,0.7507 0.19863,0.21189 0.44095,0.37873 0.72694,0.50051 0.286,0.12179 0.60904,0.18268 0.96915,0.18268 z m 0,0.58791 c -0.43963,0 -0.84082,-0.0755 -1.20358,-0.22644 -0.36277,-0.15095 -0.6726,-0.35751 -0.9295,-0.61967 -0.25691,-0.26215 -0.45684,-0.57328 -0.59979,-0.93338 -0.14296,-0.36009 -0.21444,-0.75203 -0.21444,-1.17582 0,-0.41828 0.0715,-0.80884 0.21444,-1.17169 0.14295,-0.36284 0.34288,-0.67535 0.59979,-0.9375 0.2569,-0.26215 0.56673,-0.46867 0.9295,-0.61955 0.36276,-0.15087 0.76395,-0.22631 1.20358,-0.22632 0.43945,10e-6 0.8406,0.0742 1.20345,0.22244 0.36284,0.14829 0.67268,0.35481 0.9295,0.61955 0.25682,0.26474 0.45675,0.5772 0.59979,0.93738 0.14303,0.36018 0.21455,0.75208 0.21456,1.17569 -10e-6,0.42379 -0.0715,0.81573 -0.21456,1.17582 -0.14304,0.3601 -0.34297,0.67123 -0.59979,0.93338 -0.25682,0.26216 -0.56666,0.46872 -0.9295,0.61967 -0.36285,0.15096 -0.764,0.22644 -1.20345,0.22644 z" />
  </g>
  <g
     id="g3059"
     transform="matrix(1.239241,0,0,1.239241,-242.7987,49.359907)">
    <path
       d="m 215.45207,-30.60848 c -2.05766,0 -3.78125,1.72358 -3.78125,3.78125 l 0,2.09375 c 0,0.29244 0.0281,0.5688 0.0937,0.84375 l -0.9375,0 c -2.21652,0 -4.0625,1.87723 -4.0625,4.09375 l 0,2.4375 c 0,0.64325 0.16263,1.23648 0.4375,1.78125 -2.16152,0.56998 -3.78125,2.58117 -3.78125,4.90625 l 0,3.59375 c 0,1.39335 0.56853,2.64673 1.5,3.5625 -0.94044,0.91456 -1.53125,2.19567 -1.53125,3.59375 l 0,1.21875 c -1.28222,-0.94163 -2.64609,-1.84686 -4.15625,-2.71875 l -3,-1.75 0,3.46875 c 0,12.22237 3.75052,20.13434 8.21875,24.90625 4.46823,4.77191 9.30349,6.43827 12.3125,6.4375 3.00756,-7.1e-4 7.81799,-1.66562 12.28125,-6.4375 4.46326,-4.77188 8.21875,-12.68442 8.21875,-24.90625 l 0,-3.46875 -3,1.75 c -1.51101,0.87238 -2.90353,1.77693 -4.1875,2.71875 l 0,-1.21875 c 0,-1.39808 -0.5987,-2.67919 -1.53125,-3.59375 0.93148,-0.91577 1.53125,-2.16915 1.53125,-3.5625 l 0,-3.59375 c 0,-2.33044 -1.6435,-4.3416 -3.8125,-4.90625 0.27861,-0.54477 0.46875,-1.138 0.46875,-1.78125 l 0,-2.4375 c 0,-2.21652 -1.87723,-4.09375 -4.09375,-4.09375 l -0.96875,0 c 0.0645,-0.27495 0.125,-0.55131 0.125,-0.84375 l 0,-2.09375 c 0,-2.05767 -1.69234,-3.78125 -3.75,-3.78125 z"
       id="path4552"
       style="font-size:medium;font-style:normal;font-variant:normal;font-weight:normal;font-stretch:normal;text-indent:0;text-align:start;text-decoration:none;line-height:normal;letter-spacing:normal;word-spacing:normal;text-transform:none;direction:ltr;block-progression:tb;writing-mode:lr-tb;text-anchor:start;baseline-shift:baseline;color:#000000;fill:#ffffff;fill-opacity:1;fill-rule:nonzero;stroke:none;stroke-width:4;marker:none;visibility:visible;display:inline;overflow:visible;enable-background:accumulate;font-family:Sans;-inkscape-font-specification:Sans"
       inkscape:connector-curvature="0" />
    <path
       d="m 220.79199,-2.95703 c -1.68224,0 -3.02558,1.34334 -3.02558,3.02558 l 0,3.61705 c 0,1.68225 1.34334,3.02558 3.02558,3.02558 l 4.16302,0 c 0.98943,-1.06397 2.08739,-2.10966 3.29857,-3.13932 l 0,-3.50331 c 0,-1.68224 -1.36609,-3.02558 -3.04834,-3.02558 l -4.41325,0 z"
       id="path4384"
       style="color:#000000;fill:#ff8000;fill-opacity:1;stroke:none;stroke-width:1px;marker:none;visibility:visible;display:inline;overflow:visible;enable-background:accumulate"
       inkscape:connector-curvature="0" />
    <path
       d="m 225.20836,-13.73389 -4.40545,0 c -1.68224,0 -3.03654,1.35431 -3.03654,3.03656 l 0,3.5959 c 0,1.68225 1.3543,3.03655 3.03654,3.03655 l 4.40545,0 c 1.68225,0 3.03655,-1.3543 3.03655,-3.03655 l 0,-3.5959 c 0,-1.68225 -1.3543,-3.03656 -3.03655,-3.03656 z"
       id="path4386"
       style="color:#000000;fill:#ff8000;fill-opacity:1;stroke:none;stroke-width:1px;marker:none;visibility:visible;display:inline;overflow:visible;enable-background:accumulate"
       inkscape:connector-curvature="0" />
    <path
       d="m 222.82335,-21.88743 -2.99358,0 c -1.14312,0 -2.06339,0.92027 -2.06339,2.06339 l 0,2.44349 c 0,1.14311 0.92027,2.06338 2.06339,2.06338 l 2.99358,0 c 1.14312,0 2.06339,-0.92027 2.06339,-2.06338 l 0,-2.44349 c 0,-1.14312 -0.92027,-2.06339 -2.06339,-2.06339 z"
       id="path4388"
       style="color:#000000;fill:#ff8000;fill-opacity:1;stroke:none;stroke-width:0.64135021px;marker:none;visibility:visible;display:inline;overflow:visible;enable-background:accumulate"
       inkscape:connector-curvature="0" />
    <path
       d="m 208.62141,-2.95703 c -1.68224,0 -3.04833,1.34334 -3.04833,3.02558 l 0,3.48056 c 1.2233,1.03902 2.32385,2.08802 3.32132,3.16207 l 4.14027,0 c 1.68224,0 3.02558,-1.34333 3.02558,-3.02558 l 0,-3.61705 c 0,-1.68224 -1.34334,-3.02558 -3.02558,-3.02558 l -4.41326,0 z"
       id="path4390"
       style="color:#000000;fill:#ffa64d;fill-opacity:1;stroke:none;stroke-width:1px;marker:none;visibility:visible;display:inline;overflow:visible;enable-background:accumulate"
       inkscape:connector-curvature="0" />
    <path
       d="m 208.61828,-13.73389 4.40546,0 c 1.68224,0 3.03654,1.35431 3.03654,3.03656 l 0,3.5959 c 0,1.68225 -1.3543,3.03655 -3.03654,3.03655 l -4.40546,0 c -1.68224,0 -3.03654,-1.3543 -3.03654,-3.03655 l 0,-3.5959 c 0,-1.68225 1.3543,-3.03656 3.03654,-3.03656 z"
       id="path4392"
       style="color:#000000;fill:#ffa64d;fill-opacity:1;stroke:none;stroke-width:1px;marker:none;visibility:visible;display:inline;overflow:visible;enable-background:accumulate"
       inkscape:connector-curvature="0" />
    <path
       d="m 211.0033,-21.88743 2.99358,0 c 1.14311,0 2.06339,0.92027 2.06339,2.06339 l 0,2.44349 c 0,1.14311 -0.92028,2.06338 -2.06339,2.06338 l -2.99358,0 c -1.14312,0 -2.06339,-0.92027 -2.06339,-2.06338 l 0,-2.44349 c 0,-1.14312 0.92027,-2.06339 2.06339,-2.06339 z"
       id="path4394"
       style="color:#000000;fill:#ffa64d;fill-opacity:1;stroke:none;stroke-width:0.64135021px;marker:none;visibility:visible;display:inline;overflow:visible;enable-background:accumulate"
       inkscape:connector-curvature="0" />
    <path
       d="m 215.62454,-28.62063 2.57759,0 c 0.98427,0 1.77666,0.79238 1.77666,1.77666 l 0,2.10393 c 0,0.98427 -0.79239,1.77666 -1.77666,1.77666 l -2.57759,0 c -0.98427,0 -1.77666,-0.79239 -1.77666,-1.77666 l 0,-2.10393 c 0,-0.98428 0.79239,-1.77666 1.77666,-1.77666 z"
       id="path4396"
       style="color:#000000;fill:#ffa64d;fill-opacity:1;stroke:none;stroke-width:0.58509141px;marker:none;visibility:visible;display:inline;overflow:visible;enable-background:accumulate"
       inkscape:connector-curvature="0" />
    <path
       d="m 219.83654,8.53108 c -1.14312,0 -2.07013,0.92703 -2.07013,2.07014 l 0,2.43411 c 0,0.90831 0.57549,1.67937 1.38767,1.9564 1.04675,-2.06185 2.38686,-4.23138 4.14027,-6.3924 -0.1499,-0.0344 -0.31708,-0.0683 -0.47772,-0.0683 l -2.98009,0 z"
       id="path4398"
       style="color:#000000;fill:#ff8000;fill-opacity:1;stroke:none;stroke-width:0.64135021px;marker:none;visibility:visible;display:inline;overflow:visible;enable-background:accumulate"
       inkscape:connector-curvature="0" />
    <path
       d="m 211.01003,8.53108 c -0.16064,0 -0.32782,0.0338 -0.47772,0.0683 1.75302,2.16115 3.09301,4.33043 4.14027,6.3924 0.81217,-0.27703 1.38767,-1.04809 1.38767,-1.9564 l 0,-2.43411 c 0,-1.14312 -0.92702,-2.07014 -2.07013,-2.07014 l -2.98009,0 z"
       id="path4400"
       style="color:#000000;fill:#ffa64d;fill-opacity:1;stroke:none;stroke-width:0.64135021px;marker:none;visibility:visible;display:inline;overflow:visible;enable-background:accumulate"
       inkscape:connector-curvature="0" />
    <path
       d="m 198.40594,0.29264 c 0,23.63754 14.31013,29.34837 18.51697,29.34729 4.20684,-0.001 18.4978,-5.70975 18.4978,-29.34729 -18.50293,10.68268 -18.4978,27.44959 -18.4978,27.44959 0,0 -0.014,-16.76691 -18.51697,-27.44959 z"
       id="path4402"
       style="font-size:medium;font-style:normal;font-variant:normal;font-weight:normal;font-stretch:normal;text-indent:0;text-align:start;text-decoration:none;line-height:normal;letter-spacing:normal;word-spacing:normal;text-transform:none;direction:ltr;block-progression:tb;writing-mode:lr-tb;text-anchor:start;baseline-shift:baseline;color:#000000;fill:#008000;fill-opacity:1;fill-rule:nonzero;stroke:none;stroke-width:9.84074593;marker:none;visibility:visible;display:inline;overflow:visible;enable-background:accumulate;font-family:Sans;-inkscape-font-specification:Sans"
       inkscape:connector-curvature="0" />
  </g>
</svg>
